<?xml version="1.0" encoding="utf-8"?>
<svg version="1.1" xmlns="http://www.w3.org/2000/svg" xmlns:xlink="http://www.w3.org/1999/xlink" x="0px" y="0px"
	 viewBox="0 0 841.89 595.276" style="enable-background:new 0 0 841.89 595.276;" xml:space="preserve">
<g>
	<g>
		<path style="fill:#00197D;" d="M282.096,357.487c-1.828,0-3.438-0.321-4.83-0.962c-1.394-0.642-2.563-1.528-3.509-2.66
			c-0.946-1.131-1.659-2.447-2.136-3.948c-0.479-1.501-0.718-3.133-0.718-4.896c0-0.892,0.065-1.795,0.195-2.709
			c0.13-0.914,0.304-1.795,0.523-2.643l3.981,0.75c-0.196,0.805-0.342,1.588-0.441,2.35c-0.098,0.762-0.147,1.512-0.147,2.252
			c0,1.631,0.266,3.024,0.8,4.177c0.532,1.153,1.327,2.029,2.382,2.627c1.055,0.598,2.355,0.897,3.9,0.897
			c1.566,0,2.888-0.299,3.965-0.897c1.077-0.599,1.898-1.474,2.464-2.627c0.566-1.153,0.848-2.556,0.848-4.21v-12.63h4.112v12.63
			c0,1.762-0.244,3.4-0.733,4.911c-0.49,1.512-1.224,2.834-2.204,3.965c-0.978,1.132-2.17,2.018-3.573,2.66
			C285.571,357.166,283.944,357.487,282.096,357.487z M282.193,332.587c-0.718,0-1.317-0.239-1.795-0.718
			c-0.479-0.478-0.717-1.077-0.717-1.795c0-0.717,0.239-1.316,0.717-1.795c0.478-0.478,1.077-0.717,1.795-0.717
			c0.739,0,1.343,0.239,1.811,0.717c0.468,0.479,0.702,1.078,0.702,1.795c0,0.718-0.235,1.317-0.702,1.795
			C283.536,332.347,282.932,332.587,282.193,332.587z M296.618,348.578c-2.11,0-3.764-0.473-4.961-1.42
			c-1.196-0.947-1.936-2.334-2.219-4.16l4.014-1.273c0.065,0.848,0.311,1.414,0.734,1.697c0.424,0.283,1.234,0.425,2.431,0.425
			h1.273v4.732H296.618z M297.891,348.578v-4.732c0.218,0,0.381,0.212,0.489,0.636c0.108,0.425,0.164,0.985,0.164,1.681
			c0,0.74-0.055,1.327-0.164,1.762C298.271,348.361,298.109,348.578,297.891,348.578z"/>
		<path style="fill:#00197D;" d="M297.891,348.578c-0.217,0-0.381-0.217-0.489-0.653c-0.108-0.435-0.164-1.022-0.164-1.762
			c0-0.718,0.055-1.283,0.164-1.697c0.109-0.413,0.272-0.62,0.489-0.62V348.578z M297.891,348.578v-4.732h6.364v4.732H297.891z
			 M304.255,348.578v-4.732c0.217,0,0.381,0.212,0.489,0.636c0.108,0.425,0.163,0.985,0.163,1.681c0,0.74-0.054,1.327-0.163,1.762
			C304.636,348.361,304.472,348.578,304.255,348.578z"/>
		<path style="fill:#00197D;" d="M304.255,348.578c-0.217,0-0.381-0.217-0.489-0.653c-0.108-0.435-0.164-1.022-0.164-1.762
			c0-0.718,0.055-1.283,0.164-1.697c0.109-0.413,0.272-0.62,0.489-0.62V348.578z M304.255,348.578v-4.732h6.364v4.732H304.255z
			 M310.619,348.578v-4.732c0.217,0,0.381,0.212,0.489,0.636c0.108,0.425,0.163,0.985,0.163,1.681c0,0.74-0.054,1.327-0.163,1.762
			C311,348.361,310.836,348.578,310.619,348.578z"/>
		<path style="fill:#00197D;" d="M310.619,348.578c-0.217,0-0.381-0.217-0.489-0.653c-0.108-0.435-0.164-1.022-0.164-1.762
			c0-0.718,0.055-1.283,0.164-1.697c0.109-0.413,0.272-0.62,0.489-0.62V348.578z M310.619,348.578v-4.732h6.364v4.732H310.619z
			 M316.983,348.578v-4.732c0.217,0,0.381,0.212,0.489,0.636c0.108,0.425,0.163,0.985,0.163,1.681c0,0.74-0.054,1.327-0.163,1.762
			C317.364,348.361,317.2,348.578,316.983,348.578z"/>
		<path style="fill:#00197D;" d="M316.982,348.578c-0.217,0-0.38-0.217-0.489-0.653c-0.109-0.435-0.164-1.022-0.164-1.762
			c0-0.718,0.055-1.283,0.164-1.697c0.109-0.413,0.272-0.62,0.489-0.62V348.578z M316.982,348.578v-4.732h6.364v4.732H316.982z
			 M323.346,348.578v-4.732c0.217,0,0.381,0.212,0.49,0.636c0.108,0.425,0.163,0.985,0.163,1.681c0,0.74-0.054,1.327-0.163,1.762
			C323.727,348.361,323.563,348.578,323.346,348.578z"/>
		<path style="fill:#00197D;" d="M323.346,348.578c-0.217,0-0.38-0.217-0.489-0.653c-0.109-0.435-0.164-1.022-0.164-1.762
			c0-0.718,0.055-1.283,0.164-1.697c0.109-0.413,0.272-0.62,0.489-0.62V348.578z M323.346,348.578v-4.732h1.73
			c0.892,0,1.566-0.077,2.023-0.229c0.457-0.152,0.761-0.424,0.914-0.816c0.152-0.392,0.228-0.957,0.228-1.697v-8.746h4.145v8.746
			c0,1.631-0.273,3.002-0.817,4.112s-1.354,1.947-2.431,2.513c-1.078,0.566-2.432,0.848-4.063,0.848H323.346z M327.687,356.509
			c-0.609,0-1.121-0.212-1.534-0.637c-0.413-0.424-0.62-0.93-0.62-1.517c0-0.653,0.207-1.18,0.62-1.583
			c0.413-0.403,0.925-0.604,1.534-0.604c0.631,0,1.153,0.201,1.567,0.604c0.413,0.402,0.62,0.93,0.62,1.583
			c0,0.587-0.207,1.093-0.62,1.517C328.84,356.297,328.318,356.509,327.687,356.509z M335.552,348.578
			c-1.631,0-2.986-0.282-4.063-0.848s-1.888-1.404-2.432-2.513c-0.543-1.109-0.816-2.481-0.816-4.112h4.145
			c0,0.74,0.075,1.305,0.228,1.697c0.152,0.392,0.456,0.664,0.913,0.816c0.457,0.152,1.132,0.229,2.024,0.229h1.272v4.732H335.552z
			 M332.681,356.509c-0.61,0-1.121-0.212-1.534-0.637c-0.413-0.424-0.621-0.93-0.621-1.517c0-0.653,0.208-1.18,0.621-1.583
			c0.412-0.403,0.924-0.604,1.534-0.604c0.63,0,1.152,0.201,1.566,0.604c0.413,0.402,0.62,0.93,0.62,1.583
			c0,0.587-0.207,1.093-0.62,1.517C333.833,356.297,333.311,356.509,332.681,356.509z M336.824,348.578v-4.732
			c0.218,0,0.382,0.212,0.49,0.636c0.109,0.425,0.163,0.985,0.163,1.681c0,0.74-0.054,1.327-0.163,1.762
			C337.206,348.361,337.042,348.578,336.824,348.578z"/>
		<path style="fill:#00197D;" d="M336.825,348.578c-0.217,0-0.381-0.217-0.489-0.653c-0.108-0.435-0.164-1.022-0.164-1.762
			c0-0.718,0.055-1.283,0.164-1.697s0.272-0.62,0.489-0.62V348.578z M336.825,348.578v-4.732h6.364v4.732H336.825z M343.189,348.578
			v-4.732c0.217,0,0.381,0.212,0.489,0.636c0.109,0.425,0.163,0.985,0.163,1.681c0,0.74-0.054,1.327-0.163,1.762
			C343.57,348.361,343.406,348.578,343.189,348.578z"/>
		<path style="fill:#00197D;" d="M343.189,348.578c-0.217,0-0.38-0.217-0.489-0.653c-0.108-0.435-0.164-1.022-0.164-1.762
			c0-0.718,0.055-1.283,0.164-1.697c0.109-0.413,0.272-0.62,0.489-0.62V348.578z M343.189,348.578v-4.732h5.679
			c1.021,0,1.888-0.12,2.595-0.359c0.706-0.239,1.245-0.56,1.614-0.962c0.37-0.403,0.556-0.844,0.556-1.323
			c0-0.326-0.088-0.658-0.262-0.995c-0.174-0.337-0.516-0.756-1.027-1.256c-0.512-0.5-1.268-1.142-2.269-1.926
			c-1.001-0.783-2.327-1.762-3.981-2.937l-1.893-1.436l2.643-3.688l2.285,1.697c1.501,1.11,2.796,2.101,3.884,2.971
			c1.088,0.87,1.98,1.697,2.676,2.48c0.696,0.784,1.212,1.584,1.551,2.399c0.337,0.816,0.505,1.714,0.505,2.692
			c0,1.524-0.381,2.84-1.142,3.949c-0.762,1.11-1.817,1.959-3.166,2.546s-2.871,0.881-4.568,0.881H343.189z M344.201,332.652v-4.569
			l15.045-6.919v5.124L344.201,332.652z M360.943,348.578c-1.632,0-2.987-0.282-4.063-0.848c-1.078-0.566-1.888-1.404-2.432-2.513
			c-0.544-1.109-0.816-2.481-0.816-4.112v-0.098l4.112,0.164v0.065c0.022,0.697,0.114,1.236,0.277,1.616
			c0.164,0.381,0.473,0.642,0.931,0.783c0.457,0.141,1.121,0.212,1.991,0.212h1.24v4.732H360.943z M362.183,348.578v-4.732
			c0.239,0,0.408,0.212,0.505,0.636c0.098,0.425,0.148,0.985,0.148,1.681c0,0.74-0.05,1.327-0.148,1.762
			C362.591,348.361,362.422,348.578,362.183,348.578z"/>
		<path style="fill:#00197D;" d="M362.183,348.578c-0.217,0-0.381-0.217-0.49-0.653c-0.108-0.435-0.163-1.022-0.163-1.762
			c0-0.718,0.054-1.283,0.163-1.697c0.109-0.413,0.273-0.62,0.49-0.62V348.578z M362.183,348.578v-4.732h6.364v4.732H362.183z
			 M368.548,348.578v-4.732c0.217,0,0.38,0.212,0.488,0.636c0.109,0.425,0.164,0.985,0.164,1.681c0,0.74-0.054,1.327-0.164,1.762
			C368.927,348.361,368.765,348.578,368.548,348.578z"/>
		<path style="fill:#00197D;" d="M368.548,348.578c-0.217,0-0.381-0.217-0.49-0.653c-0.108-0.435-0.163-1.022-0.163-1.762
			c0-0.718,0.054-1.283,0.163-1.697c0.109-0.413,0.273-0.62,0.49-0.62V348.578z M368.548,348.578v-4.732
			c0.978,0,1.805-0.18,2.481-0.539c0.673-0.359,1.278-0.87,1.811-1.534c0.533-0.663,1.071-1.441,1.615-2.334
			c0.522-0.826,1.082-1.658,1.681-2.496c0.599-0.837,1.256-1.599,1.974-2.284c0.718-0.686,1.518-1.24,2.4-1.665
			c0.881-0.424,1.887-0.636,3.018-0.636c1.175,0,2.197,0.251,3.067,0.75c0.87,0.501,1.588,1.175,2.155,2.024
			c0.565,0.848,0.984,1.822,1.255,2.92c0.273,1.099,0.409,2.236,0.409,3.411s-0.152,2.464-0.457,3.867
			c-0.305,1.404-0.773,2.704-1.403,3.9l-3.786-1.959c0.501-0.87,0.881-1.8,1.143-2.79c0.261-0.99,0.391-1.996,0.391-3.018
			c0-1.501-0.244-2.611-0.733-3.329c-0.49-0.718-1.18-1.078-2.073-1.078c-0.587,0-1.165,0.158-1.73,0.473
			c-0.565,0.316-1.158,0.838-1.778,1.567c-0.62,0.73-1.31,1.714-2.072,2.954c-0.958,1.48-1.883,2.703-2.774,3.671
			c-0.892,0.968-1.86,1.686-2.905,2.154C371.191,348.344,369.962,348.578,368.548,348.578z M388.324,344.499l0.228,4.732
			c-2.045,0.13-3.824,0.119-5.335-0.033c-1.513-0.152-2.835-0.425-3.966-0.816c-1.132-0.392-2.138-0.887-3.019-1.485
			c-0.881-0.598-1.702-1.289-2.464-2.073l2.84-3.067c0.783,0.804,1.691,1.425,2.725,1.859c1.034,0.436,2.285,0.718,3.754,0.849
			C384.555,344.596,386.3,344.608,388.324,344.499z M393.546,348.578c-1.523,0-2.8-0.282-3.835-0.848
			c-1.033-0.566-1.816-1.404-2.35-2.513s-0.799-2.481-0.799-4.112v-0.718l3.687,0.164l0.131,0.75
			c0.022,0.674,0.114,1.197,0.277,1.567c0.164,0.37,0.473,0.626,0.931,0.767c0.457,0.141,1.11,0.212,1.958,0.212h1.274v4.732
			H393.546z M394.819,348.578v-4.732c0.217,0,0.38,0.212,0.488,0.636c0.109,0.425,0.164,0.985,0.164,1.681
			c0,0.74-0.054,1.327-0.164,1.762C395.199,348.361,395.036,348.578,394.819,348.578z"/>
		<path style="fill:#00197D;" d="M394.819,348.578c-0.217,0-0.381-0.217-0.489-0.653c-0.108-0.435-0.164-1.022-0.164-1.762
			c0-0.718,0.055-1.283,0.164-1.697c0.109-0.413,0.272-0.62,0.489-0.62V348.578z M394.819,348.578v-4.732h1.729
			c0.892,0,1.567-0.077,2.024-0.229c0.456-0.152,0.761-0.424,0.913-0.816c0.152-0.392,0.228-0.957,0.228-1.697v-8.746h4.145v8.746
			c0,1.631-0.272,3.002-0.816,4.112c-0.544,1.109-1.354,1.947-2.432,2.513c-1.077,0.566-2.431,0.848-4.063,0.848H394.819z
			 M399.191,328.736c-0.63,0-1.152-0.207-1.566-0.62c-0.413-0.413-0.621-0.924-0.621-1.534c0-0.653,0.208-1.18,0.621-1.583
			s0.935-0.604,1.566-0.604c0.61,0,1.121,0.202,1.534,0.604s0.621,0.93,0.621,1.583c0,0.61-0.208,1.121-0.621,1.534
			C400.312,328.529,399.801,328.736,399.191,328.736z M407.024,348.578c-1.631,0-2.986-0.282-4.063-0.848
			c-1.077-0.566-1.888-1.404-2.431-2.513s-0.817-2.481-0.817-4.112h4.145c0,0.74,0.076,1.305,0.228,1.697
			c0.152,0.392,0.456,0.664,0.914,0.816c0.457,0.152,1.131,0.229,2.023,0.229h1.273v4.732H407.024z M404.185,328.736
			c-0.631,0-1.153-0.207-1.567-0.62c-0.413-0.413-0.62-0.924-0.62-1.534c0-0.653,0.207-1.18,0.62-1.583s0.935-0.604,1.567-0.604
			c0.609,0,1.12,0.202,1.534,0.604c0.413,0.402,0.62,0.93,0.62,1.583c0,0.61-0.208,1.121-0.62,1.534
			C405.305,328.529,404.794,328.736,404.185,328.736z M408.297,348.578v-4.732c0.218,0,0.381,0.212,0.489,0.636
			c0.109,0.425,0.164,0.985,0.164,1.681c0,0.74-0.055,1.327-0.164,1.762C408.677,348.361,408.515,348.578,408.297,348.578z"/>
		<path style="fill:#00197D;" d="M408.298,348.578c-0.217,0-0.381-0.217-0.49-0.653c-0.108-0.435-0.163-1.022-0.163-1.762
			c0-0.718,0.054-1.283,0.163-1.697c0.109-0.413,0.273-0.62,0.49-0.62V348.578z M408.298,348.578v-4.732h4.438v-22.748h4.112v27.479
			H408.298z"/>
		<path style="fill:#00197D;" d="M421.254,348.578v-27.479h4.145v27.479H421.254z"/>
		<path style="fill:#00197D;" d="M437.93,348.578v-4.732h15.567v4.732H437.93z M450.528,348.578c-0.022-2.328-0.424-4.394-1.208-6.2
			c-0.783-1.806-1.915-3.318-3.393-4.536c-1.48-1.219-3.276-2.067-5.386-2.546l0.915-4.536c2.698,0.61,5.025,1.741,6.983,3.394
			s3.481,3.71,4.569,6.168c1.088,2.459,1.642,5.212,1.664,8.257H450.528z M450.952,348.578v-4.732h6.266v4.732H450.952z
			 M457.218,348.578v-4.732c0.217,0,0.38,0.212,0.49,0.636c0.108,0.425,0.163,0.985,0.163,1.681c0,0.74-0.054,1.327-0.163,1.762
			C457.598,348.361,457.435,348.578,457.218,348.578z"/>
		<path style="fill:#00197D;" d="M457.218,348.578c-0.217,0-0.38-0.217-0.49-0.653c-0.108-0.435-0.163-1.022-0.163-1.762
			c0-0.718,0.054-1.283,0.163-1.697c0.11-0.413,0.273-0.62,0.49-0.62V348.578z M457.218,348.578v-4.732h6.461
			c0.827,0,1.73-0.136,2.709-0.408c0.98-0.272,1.947-0.626,2.905-1.061c0.957-0.435,1.833-0.908,2.626-1.42
			c0.795-0.511,1.425-1.012,1.893-1.501c0.468-0.49,0.702-0.919,0.702-1.289c0-0.37-0.239-0.713-0.717-1.029
			c-0.479-0.314-1.148-0.576-2.007-0.783c-0.86-0.207-1.855-0.31-2.987-0.31c-0.958,0-1.855,0.081-2.692,0.244
			c-0.838,0.164-1.725,0.398-2.66,0.702l-1.175,1.469l-2.512-1.045l2.969-4.863c0.892-0.283,1.85-0.528,2.872-0.734
			c1.022-0.207,2.165-0.31,3.427-0.31c1.915,0,3.595,0.25,5.042,0.75c1.446,0.501,2.572,1.192,3.378,2.073
			c0.804,0.881,1.208,1.931,1.208,3.149c0,1.001-0.273,1.969-0.816,2.904c-0.544,0.936-1.274,1.817-2.187,2.643
			c-0.914,0.828-1.942,1.578-3.085,2.252c-1.141,0.674-2.322,1.256-3.54,1.746c-1.219,0.489-2.41,0.87-3.574,1.142
			s-2.214,0.408-3.149,0.408H457.218z M475.005,348.578c-2.568,0-4.884-0.462-6.951-1.387c-2.067-0.924-3.808-2.23-5.221-3.916
			c-1.415-1.685-2.438-3.638-3.068-5.858l3.328-1.926c0.305,1.676,0.931,3.145,1.877,4.406c0.946,1.262,2.154,2.235,3.623,2.921
			c1.469,0.685,3.105,1.028,4.911,1.028h8.126v4.732H475.005z M481.63,348.578v-4.732c0.217,0,0.381,0.212,0.489,0.636
			c0.108,0.425,0.164,0.985,0.164,1.681c0,0.74-0.055,1.327-0.164,1.762C482.01,348.361,481.847,348.578,481.63,348.578z"/>
		<path style="fill:#00197D;" d="M481.63,348.578c-0.217,0-0.381-0.217-0.489-0.653c-0.109-0.435-0.164-1.022-0.164-1.762
			c0-0.718,0.055-1.283,0.164-1.697c0.108-0.413,0.272-0.62,0.489-0.62V348.578z M481.63,348.578v-4.732h6.364v4.732H481.63z
			 M487.994,348.578v-4.732c0.217,0,0.381,0.212,0.489,0.636c0.108,0.425,0.163,0.985,0.163,1.681c0,0.74-0.054,1.327-0.163,1.762
			C488.374,348.361,488.211,348.578,487.994,348.578z"/>
		<path style="fill:#00197D;" d="M487.994,348.578c-0.217,0-0.381-0.217-0.489-0.653c-0.109-0.435-0.164-1.022-0.164-1.762
			c0-0.718,0.055-1.283,0.164-1.697c0.108-0.413,0.272-0.62,0.489-0.62V348.578z M487.994,348.578v-4.732h6.364v4.732H487.994z
			 M494.358,348.578v-4.732c0.217,0,0.381,0.212,0.489,0.636c0.108,0.425,0.163,0.985,0.163,1.681c0,0.74-0.054,1.327-0.163,1.762
			C494.738,348.361,494.575,348.578,494.358,348.578z"/>
		<path style="fill:#00197D;" d="M494.357,348.578c-0.217,0-0.38-0.217-0.489-0.653c-0.108-0.435-0.164-1.022-0.164-1.762
			c0-0.718,0.055-1.283,0.164-1.697c0.109-0.413,0.272-0.62,0.489-0.62V348.578z M494.357,348.578v-4.732h6.364v4.732H494.357z
			 M500.721,348.578v-4.732c0.217,0,0.381,0.212,0.49,0.636c0.108,0.425,0.163,0.985,0.163,1.681c0,0.74-0.054,1.327-0.163,1.762
			C501.102,348.361,500.938,348.578,500.721,348.578z"/>
		<path style="fill:#00197D;" d="M500.721,348.578c-0.217,0-0.38-0.217-0.489-0.653c-0.108-0.435-0.164-1.022-0.164-1.762
			c0-0.718,0.055-1.283,0.164-1.697c0.109-0.413,0.272-0.62,0.489-0.62V348.578z M500.721,348.578v-4.732h6.364v4.732H500.721z
			 M507.085,348.578v-4.732c0.217,0,0.381,0.212,0.49,0.636c0.108,0.425,0.163,0.985,0.163,1.681c0,0.74-0.054,1.327-0.163,1.762
			C507.466,348.361,507.302,348.578,507.085,348.578z"/>
		<path style="fill:#00197D;" d="M507.085,348.578c-0.217,0-0.38-0.217-0.489-0.653c-0.108-0.435-0.164-1.022-0.164-1.762
			c0-0.718,0.055-1.283,0.164-1.697c0.109-0.413,0.272-0.62,0.489-0.62V348.578z M507.085,348.578v-4.732h6.364v4.732H507.085z
			 M513.449,348.578v-4.732c0.217,0,0.381,0.212,0.49,0.636c0.109,0.425,0.163,0.985,0.163,1.681c0,0.74-0.054,1.327-0.163,1.762
			C513.83,348.361,513.666,348.578,513.449,348.578z"/>
		<path style="fill:#00197D;" d="M519.226,328.278c-0.5,0-1.125-0.06-1.876-0.18c-0.75-0.119-1.474-0.298-2.17-0.538l0.653-1.926
			c0.499,0.174,1.066,0.315,1.697,0.425c0.63,0.109,1.196,0.163,1.697,0.163c0.262,0,0.517-0.016,0.767-0.049
			c0.251-0.033,0.484-0.082,0.702-0.147c-0.37-0.392-0.647-0.805-0.832-1.24c-0.185-0.435-0.278-0.86-0.278-1.273
			c0-0.543,0.125-1.049,0.376-1.517c0.25-0.468,0.603-0.844,1.061-1.126c0.456-0.282,0.967-0.425,1.534-0.425
			c0.761,0,1.414,0.267,1.958,0.8c0.543,0.533,0.817,1.267,0.817,2.203c0,0.979-0.294,1.828-0.882,2.546
			c-0.587,0.717-1.35,1.279-2.284,1.681C521.227,328.077,520.249,328.278,519.226,328.278z M522.621,324.982
			c0.217-0.239,0.385-0.489,0.505-0.75c0.12-0.261,0.18-0.533,0.18-0.817c0-0.326-0.065-0.559-0.196-0.702
			c-0.13-0.141-0.305-0.212-0.522-0.212c-0.26,0-0.489,0.094-0.685,0.278c-0.196,0.185-0.294,0.43-0.294,0.734
			c0,0.239,0.081,0.484,0.245,0.734C522.017,324.499,522.272,324.743,522.621,324.982z"/>
		<path style="fill:#00197D;" d="M513.449,348.578c-0.217,0-0.38-0.217-0.489-0.653c-0.109-0.435-0.164-1.022-0.164-1.762
			c0-0.718,0.055-1.283,0.164-1.697c0.109-0.413,0.272-0.62,0.489-0.62V348.578z M518.182,332.358h4.144v16.22h-8.877v-4.732h4.733
			V332.358z M518.737,357.716c-0.717,0-1.316-0.24-1.795-0.718c-0.479-0.479-0.718-1.077-0.718-1.795s0.239-1.317,0.718-1.795
			c0.479-0.479,1.078-0.718,1.795-0.718c0.74,0,1.343,0.239,1.812,0.718c0.468,0.478,0.701,1.077,0.701,1.795
			s-0.234,1.316-0.701,1.795C520.08,357.476,519.476,357.716,518.737,357.716z"/>
	</g>
	<g>
		<path style="fill:#00197D;" d="M282.276,364.167c1.642,0,3.048,0.224,4.22,0.672c1.172,0.448,2.078,1.092,2.718,1.934
			c0.639,0.843,0.959,1.839,0.959,2.989c0,1.215-0.346,2.271-1.039,3.166c-0.692,0.895-1.636,1.492-2.829,1.79
			c1.45,0.255,2.595,0.89,3.437,1.902c0.842,1.013,1.263,2.265,1.263,3.757c0,1.279-0.341,2.377-1.023,3.292
			c-0.682,0.918-1.652,1.626-2.91,2.127c-1.257,0.5-2.749,0.751-4.476,0.751h-10.488v-22.382H282.276z M282.052,373.28
			c1.002,0,1.79-0.24,2.365-0.719c0.576-0.48,0.863-1.135,0.863-1.967s-0.287-1.476-0.863-1.934
			c-0.575-0.458-1.364-0.676-2.365-0.656h-5.148v5.276H282.052z M282.052,382.712c1.236,0.021,2.217-0.229,2.942-0.751
			c0.724-0.523,1.087-1.252,1.087-2.191c0-0.874-0.363-1.561-1.087-2.062c-0.725-0.5-1.706-0.74-2.942-0.719h-5.148v5.723H282.052z"
			/>
		<path style="fill:#00197D;" d="M297.751,377.34c0,1.706,0.479,3.048,1.439,4.029c0.959,0.981,2.206,1.471,3.74,1.471
			c1.535,0,2.76-0.484,3.678-1.455c0.916-0.969,1.374-2.318,1.374-4.044v-13.173h4.796v13.173c0,1.94-0.399,3.629-1.199,5.068
			c-0.799,1.439-1.934,2.542-3.405,3.309c-1.471,0.768-3.219,1.151-5.244,1.151c-2.046,0-3.815-0.383-5.307-1.151
			c-1.493-0.767-2.643-1.871-3.453-3.309c-0.81-1.439-1.215-3.128-1.215-5.068v-13.173h4.796V377.34z"/>
		<path style="fill:#00197D;" d="M322.498,364.167h4.924l9.592,22.382h-5.115l-7.066-17.585l-7.13,17.585h-4.955L322.498,364.167z
			 M318.086,378.14h13.237v3.772h-13.237V378.14z"/>
		<path style="fill:#00197D;" d="M347.47,364.167c1.727,0,3.304,0.272,4.732,0.816c1.427,0.543,2.664,1.311,3.709,2.302
			c1.045,0.991,1.855,2.175,2.43,3.55c0.575,1.375,0.863,2.883,0.863,4.524c0,1.642-0.288,3.139-0.863,4.492
			c-0.575,1.354-1.396,2.538-2.462,3.55c-1.066,1.013-2.323,1.79-3.773,2.334c-1.45,0.543-3.048,0.816-4.796,0.816h-9.273v-22.382
			H347.47z M347.565,382.615c0.98,0,1.881-0.176,2.702-0.528c0.82-0.352,1.535-0.847,2.142-1.486
			c0.608-0.64,1.081-1.401,1.423-2.286c0.341-0.885,0.512-1.859,0.512-2.926c0-1.087-0.176-2.073-0.528-2.958
			c-0.352-0.885-0.842-1.657-1.47-2.318c-0.629-0.661-1.365-1.162-2.206-1.503c-0.842-0.34-1.764-0.512-2.766-0.512h-4.54v14.516
			H347.565z"/>
		<path style="fill:#00197D;" d="M375.511,364.167h4.924l9.592,22.382h-5.115l-7.067-17.585l-7.13,17.585h-4.955L375.511,364.167z
			 M371.099,378.14h13.237v3.772h-13.237V378.14z"/>
		<path style="fill:#00197D;" d="M391.05,364.167h4.796v18.353h9.592v4.029H391.05V364.167z"/>
		<path style="fill:#00197D;" d="M404.798,364.167h18.545v3.933h-6.907v18.449h-4.764V368.1h-6.875V364.167z"/>
		<path style="fill:#00197D;" d="M429.514,364.167h4.925l9.592,22.382h-5.116l-7.066-17.585l-7.13,17.585h-4.956L429.514,364.167z
			 M425.102,378.14h13.237v3.772h-13.237V378.14z"/>
		<path style="fill:#00197D;" d="M445.053,364.167h5.372l7.13,14.228l7.066-14.228h5.341v22.382h-4.318v-15.763l-6.587,13.461
			h-3.069l-6.618-13.461v15.763h-4.317V364.167z"/>
		<path style="fill:#00197D;" d="M473.638,364.167h4.796v10.935l9.56-10.935h5.595l-15.155,16.69v5.692h-4.796V364.167z
			 M484.669,372.992l9.465,13.557h-5.723l-6.938-9.784L484.669,372.992z"/>
		<path style="fill:#00197D;" d="M495.604,364.167h4.796v22.382h-4.796V364.167z"/>
		<path style="fill:#00197D;" d="M504.045,364.167h4.412l12.374,16.722l-1.247,0.416v-17.138h4.54v22.382h-4.412l-12.31-16.69
			l1.247-0.415v17.106h-4.604V364.167z"/>
	</g>
	<g>
		<path style="fill:#00197D;" d="M435.38,218.726c-2.73,0.134-5.459,0.276-8.188,0.427c-21.134,1.166-42.239,2.838-63.229,5.645 c1.258-5.905,2.517-11.811,3.775-17.716c18.104,2.384,36.297,3.851,54.52,4.888c2.934,0.166,5.87,0.323,8.806,0.469 L435.38,218.726z"/>
		<path style="fill:#00197D;" d="M357.184,256.608c29.472-14.866,61.282-23.089,93.699-28.522 c-1.258-1.814-2.517-3.628-3.775-5.442c-29.131,3.028-58.13,7.502-86.148,16.248 C359.701,244.798,358.442,250.703,357.184,256.608z"/>
		<path style="fill:#00197D;" d="M442.879,241.998c-33.371,10.071-64.724,24.701-92.474,46.419 c1.258-5.904,2.517-11.809,3.775-17.715c26.11-16.629,54.736-27.379,84.515-34.798L442.879,241.998z"/>
		<rect style="fill:#00197D;" x="399.8" y="270.933" transform="matrix(0.7071 0.7071 -0.7071 0.7071 318.1767 -207.2817)" width="18.999" height="18.999"/>
	</g>
</g>
</svg>
