<svg xmlns="http://www.w3.org/2000/svg" viewBox="345 200 120 100" fill="currentColor">
  <path d="M435.38,218.726c-2.73,0.134-5.459,0.276-8.188,0.427c-21.134,1.166-42.239,2.838-63.229,5.645 c1.258-5.905,2.517-11.811,3.775-17.716c18.104,2.384,36.297,3.851,54.52,4.888c2.934,0.166,5.87,0.323,8.806,0.469 L435.38,218.726z"/>
  <path d="M357.184,256.608c29.472-14.866,61.282-23.089,93.699-28.522 c-1.258-1.814-2.517-3.628-3.775-5.442c-29.131,3.028-58.13,7.502-86.148,16.248 C359.701,244.798,358.442,250.703,357.184,256.608z"/>
  <path d="M442.879,241.998c-33.371,10.071-64.724,24.701-92.474,46.419 c1.258-5.904,2.517-11.809,3.775-17.715c26.11-16.629,54.736-27.379,84.515-34.798L442.879,241.998z"/>
  <rect x="399.8" y="270.933" transform="matrix(0.7071 0.7071 -0.7071 0.7071 318.1767 -207.2817)" width="18.999" height="18.999"/>
</svg>
